<svg xmlns="http://www.w3.org/2000/svg" viewBox="0 0 512 512" width="512" height="512">
  <defs>
    <radialGradient id="bg" cx="50%" cy="40%" r="78%">
      <stop offset="0" stop-color="#6e1622"/><stop offset=".6" stop-color="#3a0c14"/><stop offset="1" stop-color="#170406"/>
    </radialGradient>
    <linearGradient id="gold" x1="0" y1="0" x2="0" y2="1">
      <stop offset="0" stop-color="#ffe9a8"/><stop offset=".45" stop-color="#ffd24a"/><stop offset="1" stop-color="#b8860f"/>
    </linearGradient>
    <linearGradient id="cup" x1="0" y1="0" x2="0" y2="1">
      <stop offset="0" stop-color="#fbf1d8"/><stop offset="1" stop-color="#e6d3a6"/>
    </linearGradient>
  </defs>
  <rect width="512" height="512" fill="url(#bg)"/>
  <!-- rayos art-deco -->
  <g fill="#7c1a26" opacity=".5">
    <g id="ray"><path d="M256 256 L256 0 L296 0 Z"/></g>
    <use href="#ray" transform="rotate(30 256 256)"/><use href="#ray" transform="rotate(60 256 256)"/>
    <use href="#ray" transform="rotate(90 256 256)"/><use href="#ray" transform="rotate(120 256 256)"/>
    <use href="#ray" transform="rotate(150 256 256)"/><use href="#ray" transform="rotate(180 256 256)"/>
    <use href="#ray" transform="rotate(210 256 256)"/><use href="#ray" transform="rotate(240 256 256)"/>
    <use href="#ray" transform="rotate(270 256 256)"/><use href="#ray" transform="rotate(300 256 256)"/>
    <use href="#ray" transform="rotate(330 256 256)"/>
  </g>
  <!-- marco art-deco -->
  <rect x="42" y="42" width="428" height="428" rx="66" fill="none" stroke="url(#gold)" stroke-width="10"/>
  <rect x="60" y="60" width="392" height="392" rx="52" fill="none" stroke="#7c1a26" stroke-width="3"/>
  <!-- platillo -->
  <ellipse cx="256" cy="388" rx="134" ry="30" fill="url(#gold)" stroke="#7a4a10" stroke-width="5"/>
  <ellipse cx="256" cy="382" rx="96" ry="16" fill="#e6b93a"/>
  <!-- taza -->
  <path d="M150 250 q0 122 106 122 q106 0 106 -122 z" fill="url(#cup)" stroke="#2a1c10" stroke-width="8"/>
  <!-- banda roja -->
  <path d="M158 300 q98 30 196 0 l-9 34 q-89 26 -178 0 z" fill="#c0392b" stroke="#2a1c10" stroke-width="6"/>
  <!-- líquido -->
  <ellipse cx="256" cy="250" rx="106" ry="24" fill="#8a2da0" stroke="#2a1c10" stroke-width="8"/>
  <ellipse cx="252" cy="247" rx="86" ry="14" fill="#bd7ad8"/>
  <!-- pajita -->
  <path d="M304 146 l-30 100" stroke="#e8434f" stroke-width="16" stroke-linecap="round"/>
  <!-- nota musical -->
  <g stroke="#2a1c10" stroke-width="4">
    <rect x="372" y="150" width="7" height="54" fill="url(#gold)"/>
    <ellipse cx="362" cy="204" rx="16" ry="12" fill="url(#gold)"/>
  </g>
  <!-- cara -->
  <circle cx="222" cy="330" r="10" fill="#d87868" opacity=".55"/><circle cx="290" cy="330" r="10" fill="#d87868" opacity=".55"/>
  <circle cx="230" cy="316" r="16" fill="#fff" stroke="#2a1c10" stroke-width="5"/><circle cx="233" cy="318" r="8.5" fill="#2a1c10"/>
  <circle cx="282" cy="316" r="16" fill="#fff" stroke="#2a1c10" stroke-width="5"/><circle cx="285" cy="318" r="8.5" fill="#2a1c10"/>
  <path d="M234 346 q22 20 44 0" fill="none" stroke="#2a1c10" stroke-width="6" stroke-linecap="round"/>
  <!-- estrellas de esquina -->
  <g fill="url(#gold)">
    <path d="M92 92 l6 14 15 1 -11 10 4 15 -14 -8 -14 8 4 -15 -11 -10 15 -1 z"/>
    <path d="M420 92 l6 14 15 1 -11 10 4 15 -14 -8 -14 8 4 -15 -11 -10 15 -1 z"/>
  </g>
</svg>
